<svg
  width="64"
  height="64"
  viewBox="0 0 64 64"
  fill="none"
  xmlns="http://www.w3.org/2000/svg"
>
  <rect width="64" height="64" fill="#DBDBDB" fill-opacity="0.25" />
  <path
    d="M32.382 37.384C33.502 37.384 34.4487 36.9973 35.222 36.224C35.9953 35.4507 36.3827 34.504 36.384 33.384V21.924H41.846V18.846H34.846V30.462C34.5153 30.102 34.1447 29.8327 33.734 29.654C33.3247 29.474 32.8747 29.384 32.384 29.384C31.264 29.384 30.3173 29.7707 29.544 30.544C28.7707 31.3173 28.384 32.264 28.384 33.384C28.384 34.5027 28.7707 35.4493 29.544 36.224C30.3173 36.9973 31.264 37.384 32.384 37.384M21 42V14H49V42H21ZM23 40H47V16H23V40ZM15 48V21.23H17V46H41.77V48H15Z"
    fill="black"
    fill-opacity="0.75"
  />
</svg>
