<svg width="536" height="165" viewBox="0 0 536 165" fill="none" xmlns="http://www.w3.org/2000/svg">
<g filter="url(#filter0_d_7_3)">
<rect x="10" y="8" width="516" height="149" rx="16" fill="#0094FF"/>
</g>
<path d="M52.4891 70.6623C55.2135 75.2129 56.5552 81.996 56.7906 87.3039C56.94 90.6744 56.4428 94.1851 57.0549 97.5153C57.9954 102.632 59.8661 107.672 60.251 112.881C60.5521 116.953 62.2856 119.092 64.8284 122.228L64.8649 122.273C67.7581 125.842 71.0734 129.131 73.9486 132.677C77.226 136.72 83.687 141.493 88.6554 142.599C94.4387 143.887 100.398 141.851 105.477 139.589C109.695 137.71 111.091 132.02 113.047 128.318C114.889 124.831 117.126 121.512 118.574 117.818C119.533 115.37 120.93 112.132 122.563 110.111C124.103 108.205 124.726 103.736 124.726 101.345V87.2317C124.726 83.7312 125.658 79.9328 126.792 76.635C127.56 74.405 129.144 72.9845 129.916 70.6623M55.9495 81.0663C51.9127 77.0207 44.2495 74.9597 40.4736 80.1993C38.6426 82.7401 38.5787 87.7528 39.945 90.4107C41.1613 92.7769 43.7425 95.3612 45.5682 97.2985C46.5756 98.3675 46.768 99.2734 48.4038 99.2734C51.1963 99.2734 54.6771 100.039 55.5169 96.6724M125.591 77.1648C129.755 77.1648 133.817 75.3033 136.597 79.3564C138.837 82.622 139 86.3435 139 90.1458C139 92.8618 135.675 96.618 133.377 97.9729C131.797 98.9045 131.506 99.9081 129.46 100.164C128.203 100.322 127.302 101.007 126.023 101.007M66.7633 73.6968C68.9772 73.4951 82.7679 68.3222 82.7679 74.1303M100.503 73.2633C103.879 70.121 106.533 70.2288 110.788 70.2288C112.562 70.2288 115.812 69.4401 116.507 71.5293M68.9261 80.1993C69.2094 80.1851 69.4912 80.1652 69.7719 80.1406M69.7719 80.1406C73.0837 79.8497 76.2368 78.8988 79.6439 78.8988C81.864 78.8988 81.8593 80.2619 82.5276 82.3668C83.733 86.1636 84.0204 92.3374 78.6346 92.3374C74.98 92.3374 73.983 91.8833 71.3052 89.7364C69.0806 87.9528 69.6515 83.0796 69.7719 80.1406ZM69.7719 80.1406C69.7837 79.8507 69.7912 79.5797 69.7912 79.3323M100.935 77.5983C104.741 77.5983 108.581 77.1648 112.422 77.1648C114.746 77.1648 115.556 79.6446 115.642 81.9333C115.751 84.8182 115.727 86.1837 113.696 88.2191C110.267 91.6549 103.665 93.0401 100.166 89.3992C98.2512 87.4061 97.6598 80.3234 100.503 78.8988M79.3074 84.1008C77.4522 84.6321 75.1079 86.8844 75.4385 89.0379C75.6258 90.2581 77.3083 90.425 78.202 89.9772C78.281 89.9376 78.3596 89.8956 78.4372 89.8511M78.4372 89.8511C78.4944 89.8184 78.5512 89.7843 78.6072 89.749M78.4372 89.8511C78.4368 89.8045 78.4364 89.7575 78.4361 89.7103M78.4372 89.8511C78.4393 90.0778 78.4423 90.2978 78.4423 90.507C78.4423 91.2736 78.8217 91.8942 79.74 91.5185C80.3436 91.2716 80.7605 90.7271 81.0358 90.0717M78.6072 89.749C78.675 89.7062 78.7418 89.6615 78.8073 89.615M78.6072 89.749C78.5498 89.7365 78.4928 89.7236 78.4361 89.7103M78.6072 89.749C79.4154 89.9244 80.2835 90.0124 81.0358 90.0717M78.8073 89.615C79.5954 89.055 80.188 88.2266 80.0043 87.1835C79.8908 86.5384 79.5635 86.204 79.188 86.1078M78.8073 89.615C78.677 89.558 78.5521 89.481 78.4355 89.3827M78.8073 89.615C79.796 90.0471 81.1001 89.3281 81.4756 88.0661M79.188 86.1078C78.4429 85.917 77.5076 86.6645 77.6733 87.7856C77.7873 88.5564 78.0706 89.0745 78.4355 89.3827M79.188 86.1078C79.2331 86.0471 79.2809 85.9882 79.3315 85.9312C79.4025 85.8511 79.4862 85.7793 79.5785 85.7176M79.188 86.1078C78.534 86.9877 78.4407 88.2344 78.4355 89.3827M78.4355 89.3827C78.435 89.4929 78.4354 89.6023 78.4361 89.7103M81.4756 88.0661C81.6492 87.4826 81.6243 86.783 81.278 86.0275C80.9629 85.3404 80.1217 85.3546 79.5785 85.7176M81.4756 88.0661C81.4308 88.728 81.297 89.4498 81.0358 90.0717M81.4756 88.0661C81.5021 87.676 81.4976 87.3067 81.4702 86.9909C81.4163 86.3691 80.5856 85.9036 79.5785 85.7176M79.5785 85.7176C77.9449 85.4159 75.847 85.8497 75.847 87.5448C75.847 88.7642 77.0295 89.3791 78.4361 89.7103M81.0358 90.0717C81.5379 90.1114 81.9885 90.1383 82.3353 90.1699M110.451 82.8003C108.18 83.3256 106.027 84.433 106.225 86.9792M106.225 86.9792C106.24 87.1825 106.271 87.395 106.318 87.617C106.536 88.6498 107.122 89.1306 107.829 89.2423M106.225 86.9792C106.396 86.6442 106.651 86.3547 106.965 86.1106M106.225 86.9792C105.918 87.5769 105.874 88.3193 106.222 89.2065C106.525 89.9792 107.244 89.9685 108.008 89.569M107.829 89.2423C108.053 89.2777 108.288 89.276 108.529 89.2432M107.829 89.2423C107.633 88.8287 107.498 88.3232 107.446 87.7144M107.829 89.2423C107.884 89.3583 107.944 89.4671 108.008 89.569M108.529 89.2432C109.574 89.1002 110.701 88.3672 111.268 87.5207C111.458 87.2375 111.425 86.9223 111.25 86.6244M108.529 89.2432C108.356 89.3686 108.181 89.4787 108.008 89.569M108.529 89.2432C109.242 88.7263 109.923 87.9495 110.272 87.2311M111.25 86.6244C111.07 86.3204 110.742 86.0344 110.351 85.819M111.25 86.6244C110.928 86.8539 110.596 87.0582 110.272 87.2311M111.25 86.6244C111.718 86.29 112.165 85.902 112.535 85.4793M110.351 85.819C109.65 85.4334 108.746 85.2739 108.129 85.6412M110.351 85.819C110.613 86.1574 110.541 86.6769 110.272 87.2311M110.351 85.819C110.239 85.6757 110.068 85.5649 109.827 85.4977C109.401 85.3793 109.022 85.3257 108.687 85.3228M108.129 85.6412C107.691 85.902 107.397 86.4284 107.423 87.328C107.427 87.4612 107.435 87.5899 107.446 87.7144M108.129 85.6412C108.154 85.5812 108.181 85.5217 108.209 85.4626M108.129 85.6412C107.842 86.3356 107.805 87.0901 108.056 87.8684M107.446 87.7144C106.797 87.3996 106.629 86.6791 106.965 86.1106M107.446 87.7144C107.616 87.7971 107.819 87.8518 108.056 87.8684M108.008 89.569C110.012 92.7409 116.331 89.1461 114.056 86.461C113.69 86.029 113.156 85.7017 112.535 85.4793M112.535 85.4793C111.384 85.0675 109.932 85.0151 108.687 85.3228M112.535 85.4793C113.083 84.851 113.46 84.146 113.479 83.4265C113.517 82.0125 110.348 83.3391 109.923 83.6192C109.172 84.1143 108.608 84.7012 108.267 85.3479M108.687 85.3228C108.524 85.3632 108.364 85.4098 108.209 85.4626M108.687 85.3228C108.538 85.3215 108.398 85.3303 108.267 85.3479M108.209 85.4626C107.741 85.622 107.315 85.838 106.965 86.1106M108.209 85.4626C108.228 85.4242 108.247 85.386 108.267 85.3479M106.965 86.1106C107.183 85.7409 107.615 85.4355 108.267 85.3479M110.272 87.2311C109.876 87.4423 109.492 87.6068 109.154 87.7134C108.732 87.846 108.366 87.8901 108.056 87.8684M108.056 87.8684C108.116 88.0563 108.194 88.2456 108.289 88.4359M91.5317 95.1813C92.7565 95.1813 94.2879 98.6161 94.7759 99.7572C95.5596 101.59 95.8185 104.132 96.9386 105.754C97.4421 106.483 98.02 107.286 98.02 108.186C98.02 110.57 95.6892 110.48 94.127 111.654M87.526 124.416C90.1288 123.299 93.1753 119.152 96.5135 121.382C98.3052 122.579 99.4459 124.224 100.935 125.717M46.8658 84.1008C46.0974 84.2934 45.5682 86.5504 45.5682 87.2317C45.5682 89.5106 47.8591 89.7075 48.8364 91.4704C49.2224 92.1668 49.0286 93.2929 49.0286 94.0714C49.0286 95.61 51.8388 94.9384 52.9216 94.9384M130.781 84.9678C128.602 85.1499 128.678 88.7827 129.388 90.3625C131.17 94.3315 127.855 95.6582 124.726 97.1059M67.9674 26.2924C62.7015 28.5623 57.2255 31.4529 53.8794 36.2607C50.9245 40.5065 48.3608 45.6786 47.2956 50.7874C45.8557 57.6934 47.2602 65.2894 47.2602 72.2671C47.2602 72.4912 47.1452 73.1319 47.2779 73.3313C47.3663 73.4643 47.493 73.0935 47.5788 72.9589C48.5522 71.432 49.5463 69.9397 50.6583 68.5068C52.4438 66.2062 54.5249 64.1501 56.2687 61.8199C56.5897 61.391 57.2173 60.5062 57.897 60.8089C58.5355 61.0933 58.8968 64.7982 59.0474 65.3496C59.9245 68.562 61.2811 71.6006 62.764 74.5729C63.1112 75.2687 63.5353 76.9253 64.0383 75.6727C65.55 71.9082 67.0341 68.0139 69.1355 64.5337C70.4797 62.3074 72.1477 60.3078 73.6132 58.1661C73.7886 57.9097 74.3392 56.5426 74.6574 56.4456C75.7182 56.122 78.8916 64.7324 78.9935 64.9771C81.0134 69.8312 82.6874 74.7933 84.5154 79.7167C85.2346 81.6537 85.0785 83.4337 86.0552 80.4972C87.5458 76.0154 88.6002 71.4244 87.9666 66.6622C87.824 65.5903 87.3179 64.599 87.0994 63.5404C86.9977 63.0478 86.0841 62.1215 86.5861 62.1215C88.3945 62.1215 91.8165 67.6075 92.5859 68.6842C94.694 71.6345 96.0971 74.9187 98.037 77.943C98.0641 77.9853 98.3529 74.1235 98.4795 73.5797C99.5009 69.1898 102.303 65.4876 106.161 63.2212C107.186 62.6189 108.316 61.7951 108.922 63.0083C110.143 65.4567 111.408 67.9536 112.957 70.2096C114.448 72.382 116.156 74.3629 117.872 76.3535L118.019 76.524C119.002 77.6649 118.906 77.3245 119.222 75.7791C120.173 71.1215 120.85 66.6879 120.85 61.9441V59.5496C120.85 58.0779 122.358 60.0677 122.762 60.4364C125.669 63.0889 129.175 65.2001 131.664 68.2763C131.772 68.4096 133.898 71.7621 134.159 71.2384C134.716 70.1238 134.258 67.5146 134.177 66.3429C134.028 64.1699 133.604 61.8561 132.814 59.8156C131.242 55.7514 129.229 51.4956 127.062 47.7189C120.134 35.6427 108.256 27.2322 94.5327 24.7315C83.0167 22.6332 70.9015 21.9067 59.6845 25.6539M97.4476 36.6342C102.556 39.5837 106.199 42.9606 110.594 46.6802C111.696 47.6127 112.527 47.8813 112.977 49.2329M86.3553 41.8219C86.9791 45.156 88.758 48.1173 89.3132 51.4562M73.0446 38.8575C71.9688 41.8761 70.7649 44.9091 69.3471 47.7507" stroke="black" stroke-width="3" stroke-linecap="round"/>
<path d="M163 8H510C518.837 8 526 15.1634 526 24V141C526 149.837 518.837 157 510 157H163V8Z" fill="#161616"/>
<path d="M247.722 66.9091C247.338 63.6705 245.783 61.1562 243.055 59.3665C240.328 57.5767 236.983 56.6818 233.02 56.6818C230.122 56.6818 227.587 57.1506 225.413 58.0881C223.261 59.0256 221.578 60.3146 220.364 61.9553C219.17 63.5959 218.574 65.4602 218.574 67.5483C218.574 69.2955 218.989 70.7976 219.82 72.0547C220.673 73.2905 221.759 74.3239 223.08 75.1548C224.401 75.9645 225.786 76.6357 227.235 77.1683C228.684 77.6797 230.016 78.0952 231.23 78.4148L237.878 80.2045C239.582 80.652 241.479 81.2699 243.567 82.0582C245.676 82.8466 247.69 83.9226 249.607 85.2862C251.546 86.6285 253.144 88.3544 254.401 90.4638C255.658 92.5732 256.287 95.1619 256.287 98.2301C256.287 101.767 255.36 104.963 253.506 107.818C251.674 110.673 248.989 112.942 245.452 114.626C241.937 116.309 237.665 117.151 232.636 117.151C227.949 117.151 223.89 116.394 220.46 114.881C217.05 113.369 214.366 111.259 212.406 108.553C210.467 105.847 209.369 102.705 209.114 99.125H217.295C217.509 101.597 218.339 103.642 219.788 105.261C221.259 106.859 223.112 108.053 225.349 108.841C227.608 109.608 230.037 109.991 232.636 109.991C235.662 109.991 238.379 109.501 240.786 108.521C243.194 107.52 245.101 106.135 246.507 104.366C247.913 102.577 248.616 100.489 248.616 98.1023C248.616 95.929 248.009 94.1605 246.795 92.7969C245.58 91.4332 243.982 90.3253 242.001 89.473C240.019 88.6207 237.878 87.875 235.577 87.2358L227.523 84.9347C222.409 83.4645 218.361 81.3658 215.378 78.6385C212.395 75.9112 210.903 72.3423 210.903 67.9318C210.903 64.267 211.894 61.071 213.876 58.3438C215.879 55.5952 218.563 53.4645 221.93 51.9517C225.317 50.4176 229.099 49.6506 233.276 49.6506C237.494 49.6506 241.244 50.407 244.526 51.9197C247.807 53.4112 250.406 55.4567 252.324 58.0561C254.263 60.6555 255.286 63.6065 255.392 66.9091H247.722ZM269.319 116V50.5455H277.245V108.969H307.671V116H269.319ZM319.944 116V50.5455H359.447V57.5767H327.87V79.6932H357.401V86.7244H327.87V108.969H359.958V116H319.944Z" fill="white"/>
<path d="M416 119C413.8 119 411.917 118.217 410.352 116.652C408.787 115.087 408.003 113.203 408 111V55C408 52.8 408.784 50.9173 410.352 49.352C411.92 47.7867 413.803 47.0027 416 47H444V55H416V111H472V83H480V111C480 113.2 479.217 115.084 477.652 116.652C476.087 118.22 474.203 119.003 472 119H416ZM434.8 97.8L429.2 92.2L466.4 55H452V47H480V75H472V60.6L434.8 97.8Z" fill="white"/>
<defs>
<filter id="filter0_d_7_3" x="2.1" y="0.0999999" width="531.8" height="164.8" filterUnits="userSpaceOnUse" color-interpolation-filters="sRGB">
<feFlood flood-opacity="0" result="BackgroundImageFix"/>
<feColorMatrix in="SourceAlpha" type="matrix" values="0 0 0 0 0 0 0 0 0 0 0 0 0 0 0 0 0 0 127 0" result="hardAlpha"/>
<feMorphology radius="2" operator="dilate" in="SourceAlpha" result="effect1_dropShadow_7_3"/>
<feOffset/>
<feGaussianBlur stdDeviation="2.95"/>
<feComposite in2="hardAlpha" operator="out"/>
<feColorMatrix type="matrix" values="0 0 0 0 0.1625 0 0 0 0 0.1625 0 0 0 0 0.1625 0 0 0 0.25 0"/>
<feBlend mode="normal" in2="BackgroundImageFix" result="effect1_dropShadow_7_3"/>
<feBlend mode="normal" in="SourceGraphic" in2="effect1_dropShadow_7_3" result="shape"/>
</filter>
</defs>
</svg>
